Coordinates
version=1
nRows=18
nColumns=22
inDegrees=yes

Units are S.I. units (second, meters, Newtons, ...)
If the header above contains a line with 'inDegrees', this indicates whether rotational values are in degrees (yes) or radians (no).

endheader
time	pelvis_tilt	pelvis_list	pelvis_rotation	pelvis_tx	pelvis_ty	pelvis_tz	hip_flexion_r	hip_adduction_r	hip_rotation_r	knee_angle_r	ankle_angle_r	subtalar_angle_r	hip_flexion_l	hip_adduction_l	hip_rotation_l	knee_angle_l	ankle_angle_l	subtalar_angle_l	lumbar_extension	lumbar_bending	lumbar_rotation
      1.61000000	      8.95034082	     -3.32909744	     64.55640654	      1.13707826	      0.91104773	      0.65444009	    -10.87116662	      8.71440038	     -8.02563449	     -7.51183561	     14.19991644	      4.57102961	     30.58917308	     -8.85289453	    -12.75622441	    -30.84332024	      7.40956617	     -8.02231537	     -9.29184424	      4.95363945	      5.67224898
      1.62000000	      8.81845425	     -3.53198849	     64.85232995	      1.13995245	      0.90883094	      0.64596827	    -11.42093137	      8.69799853	     -8.17976871	     -7.15472193	     14.53520065	      4.68100016	     30.68726776	     -8.95116189	    -14.82765215	    -27.77977669	      7.67103983	     -7.72149743	     -8.87177932	      4.82733986	      5.88228694
      1.63000000	      8.68507554	     -3.74146885	     65.11823061	      1.14274011	      0.90650144	      0.63738236	    -11.91092534	      8.65809018	     -8.32206025	     -6.90939503	     14.88402437	      4.80474445	     30.79241217	     -9.01669214	    -17.04236426	    -25.01367805	      7.92288644	     -7.38865222	     -8.44856750	      4.69507282	      6.09799945
      1.64000000	      8.54105821	     -4.02105448	     65.33556213	      1.14546131	      0.90398428	      0.62873228	    -12.23841255	      8.60439480	     -8.45150783	     -6.83926990	     15.24059355	      4.91972689	     31.00037998	     -9.07927126	    -19.30207219	    -22.64232478	      8.17220331	     -7.12773172	     -7.95044354	      4.57764898	      6.37266752
      1.65000000	      8.42763449	     -4.18088498	     65.53510074	      1.14813351	      0.90160271	      0.61987566	    -12.69547173	      8.50897771	     -8.54248086	     -6.79432924	     15.60716578	      5.09789983	     31.10738464	     -9.11867429	    -21.58845228	    -20.73972542	      8.39537461	     -6.74258731	     -7.59129956	      4.42151021	      6.60059405
      1.66000000	      8.32321305	     -4.40678250	     65.67704159	      1.15080809	      0.89911780	      0.61098507	    -12.98024468	      8.41309506	     -8.56721440	     -6.96880655	     15.95358170	      5.25775924	     31.33227373	     -9.22314391	    -23.74858995	    -19.37376219	      8.63168078	     -6.53397407	     -7.17086849	      4.29334294	      6.86077278
      1.67000000	      8.24297690	     -4.61913509	     65.77907530	      1.15353473	      0.89669350	      0.60196869	    -13.23022869	      8.30792752	     -8.57003633	     -7.26765704	     16.23838931	      5.40051425	     31.58163503	     -9.39893115	    -25.73305830	    -18.57170586	      8.88801118	     -6.46961188	     -6.76931238	      4.15921573	      7.18421631
      1.68000000	      8.18013040	     -4.76121740	     65.84951571	      1.15632594	      0.89446080	      0.59278569	    -13.51845808	      8.16830211	     -8.47829598	     -7.65782696	     16.49017866	      5.57261850	     31.77827560	     -9.63093854	    -27.51930182	    -18.30758771	      9.08807840	     -6.54745774	     -6.43878031	      3.98620335	      7.49586766
      1.69000000	      8.12392613	     -4.84847021	     65.89105619	      1.15919776	      0.89243230	      0.58341226	    -13.81764956	      7.99219818	     -8.32733392	     -8.15242723	     16.66454376	      5.75958656	     31.93172504	     -9.92190870	    -29.08550764	    -18.55050697	      9.23810589	     -6.82873456	     -6.15238900	      3.76836343	      7.82947524
      1.70000000	      8.04719601	     -4.85534085	     65.94991058	      1.16207391	      0.89065856	      0.57376097	    -14.17502622	      7.75631518	     -8.11983061	     -8.68821525	     16.73970737	      6.06603047	     32.02210538	    -10.19972736	    -30.38260170	    -19.22882263	      9.29911376	     -7.69818374	     -5.91082288	      3.46994746	      8.10535176
      1.71000000	      7.96668104	     -4.83139051	     66.03330950	      1.16492000	      0.88910217	      0.56387107	    -14.49881825	      7.49463618	     -7.91482458	     -9.35114028	     16.69338714	      6.31205867	     32.10232257	    -10.48763562	    -31.37849098	    -20.27767874	      9.27693566	     -8.70832435	     -5.67574990	      3.13947617	      8.34349929
      1.72000000	      7.83817116	     -4.75765142	     66.17474074	      1.16766624	      0.88780526	      0.55365858	    -14.83072360	      7.17120231	     -7.71728386	    -10.06294921	     16.53238924	      6.58209962	     32.15817383	    -10.68140702	    -32.04446389	    -21.56394435	      9.12184488	     -9.93076039	     -5.43476763	      2.72383650	      8.51676016
      1.73000000	      7.64291431	     -4.64585765	     66.40919279	      1.17018601	      0.88677739	      0.54311526	    -15.13039055	      6.77887857	     -7.56446006	    -10.85523433	     16.22909079	      6.89225164	     32.20914945	    -10.70397609	    -32.31748370	    -22.95787212	      8.83800669	    -11.30358561	     -5.17190874	      2.22310950	      8.56269663
      1.74000000	      7.36384671	     -4.50691763	     66.79010274	      1.17233911	      0.88603484	      0.53224104	    -15.36563713	      6.31741555	     -7.54080272	    -11.74587326	     15.73532438	      7.24813272	     32.26949364	    -10.45523026	    -32.06915403	    -24.31305645	      8.39187982	    -12.67561972	     -4.87643709	      1.63027362	      8.44830206
      1.75000000	      7.02253102	     -4.34107020	     67.31156606	      1.17409430	      0.88559495	      0.52103192	    -15.55582035	      5.80526095	     -7.64872275	    -12.71774783	     15.06226153	      7.66517649	     32.34507389	     -9.95479245	    -31.34797930	    -25.61954356	      7.90418241	    -13.90649825	     -4.56395578	      0.97701212	      8.23657287
      1.76000000	      6.58256661	     -4.16910234	     67.98603674	      1.17541123	      0.88547467	      0.50951177	    -15.64589379	      5.22184587	     -7.85805009	    -13.80688325	     14.15048931	      8.16858808	     32.41953328	     -9.13318772	    -30.17987530	    -26.74463607	      7.31352669	    -14.89629968	     -4.20542301	      0.23086985	      7.86406665
      1.77000000	      6.08993628	     -3.97363403	     68.81394734	      1.17623717	      0.88569202	      0.49770739	    -15.65031057	      4.59178752	     -8.22513091	    -15.05743395	     13.02747084	      8.74971149	     32.44826850	     -8.03831989	    -28.63953668	    -27.69228428	      6.69335564	    -15.58485802	     -3.85670841	     -0.55536460	      7.37576809
      1.78000000	      5.58006575	     -3.75345983	     69.76222086	      1.17665206	      0.88626500	      0.48566755	    -15.57088390	      3.93902008	     -8.69104241	    -16.49369348	     11.66179469	      9.38956990	     32.38233794	     -6.75850129	    -26.90221943	    -28.46388495	      6.08643706	    -16.05166211	     -3.54336447	     -1.35243835	      6.82217178
